<svg id="Layer_5" enable-background="new 0 0 64 64" height="512" viewBox="0 0 64 64" width="512" xmlns="http://www.w3.org/2000/svg"><g><g><g><path d="m30.34 31.98c-.11.02-.23.02-.34.02h-5c-1.1 0-2 .9-2 2v4h-8v-6c0-1.1-.9-2-2-2h-.79c-2.63 0-4.96-1.94-5.19-4.55-.04-.5-.01-.99.08-1.46-.03 0-.06.01-.1.01-2.76 0-5-2.24-5-5s2.24-5 5-5c0-3.87 3.13-7 7-7 .77 0 1.51.13 2.2.36.74-3.07 3.5-5.36 6.8-5.36 2.97 0 5.5 1.85 6.52 4.46.77-.29 1.6-.46 2.48-.46s1.71.17 2.48.46c1.02-2.61 3.55-4.46 6.52-4.46 3.19 0 5.87 2.13 6.72 5.05 1.67.2 3.13 1.08 4.09 2.37 1.11-.44 2.37-.57 3.7-.23 2.18.56 3.9 2.36 4.36 4.56.29 1.41.07 2.74-.48 3.88 1.55.85 2.61 2.48 2.61 4.37 0 2.07-1.26 3.85-3.05 4.61.74 1.08 1.14 2.42 1.03 3.85-.24 3.17-3.03 5.54-6.2 5.54h-2.78c-1.1 0-2 .9-2 2v4h-8v-4c0-1.1-.9-2-2-2h-3c-2.61 0-4.83-1.67-5.66-4z" fill="#ccd1d9"/></g><g><path d="m28.03 42c-.02-.47-.03-.94-.03-1.41v-2.59h-18v2.59c0 .47-.01.94-.03 1.41-.05 1.34-.18 2.68-.38 4h18.82c-.2-1.32-.33-2.66-.38-4z" fill="#fc6e51"/></g><g><path d="m54.23 46h-18.46c.16-1.32.23-2.66.23-4h5 8 5c0 1.34.07 2.68.23 4z" fill="#fc6e51"/></g><g><path d="m32.27 57.97 1.73 4.03h-30l3.08-7.19c1.21-2.82 2.06-5.79 2.51-8.81h18.82c.45 3.02 1.3 5.99 2.51 8.81z" fill="#e6e9ed"/></g><g><path d="m59.14 60.57.86 1.43h-26l-1.73-4.03c1.86-3.75 3.04-7.81 3.5-11.97h18.46c.2 1.91.57 3.79 1.08 5.63.87 3.13 2.15 6.13 3.83 8.94z" fill="#aab2bd"/></g></g><g><path d="m24 23c2.206 0 4-1.794 4-4h-2c0 1.103-.897 2-2 2s-2-.897-2-2v-4c0-1.103.897-2 2-2s2 .897 2 2h2c0-2.206-1.794-4-4-4s-4 1.794-4 4v4c0 2.206 1.794 4 4 4z"/><path d="m34 23c2.206 0 4-1.794 4-4v-4c0-2.206-1.794-4-4-4s-4 1.794-4 4v4c0 2.206 1.794 4 4 4zm-2-8c0-1.103.897-2 2-2s2 .897 2 2v4c0 1.103-.897 2-2 2s-2-.897-2-2z"/><path d="m45 25h-2.586l2.707-2.707c.567-.566.879-1.32.879-2.122v-.171c0-1.654-1.346-3-3-3s-3 1.346-3 3v1h2v-1c0-.551.449-1 1-1s1 .449 1 1v.171c0 .267-.104.519-.293.708l-3.707 3.707v2.414h5z"/><path d="m60.002 60.061c-3.272-5.455-5.002-11.701-5.002-18.061v-1h-5v-3c0-.552.449-1 1-1h2.78c3.765 0 6.928-2.839 7.2-6.463.093-1.241-.132-2.446-.655-3.54 1.653-1.099 2.675-2.96 2.675-4.997 0-1.876-.891-3.627-2.375-4.753.406-1.186.484-2.451.223-3.704-.539-2.582-2.537-4.67-5.091-5.321-1.205-.307-2.443-.293-3.62.033-.977-1.055-2.262-1.79-3.661-2.094-1.168-3.068-4.155-5.161-7.476-5.161-3.002 0-5.681 1.638-7.059 4.244-1.275-.324-2.606-.324-3.882 0-1.378-2.606-4.057-4.244-7.059-4.244-3.363 0-6.305 2.073-7.47 5.149-.506-.099-1.017-.149-1.53-.149-4.098 0-7.487 3.098-7.947 7.075-2.86.455-5.053 2.939-5.053 5.925 0 2.968 2.167 5.439 5 5.917-.003.206.005.413.023.62.27 3.063 2.987 5.463 6.185 5.463h.792c.551 0 1 .449 1 1v5h-5v3.59c0 4.78-.955 9.433-2.838 13.828l-2.821 6.582h-2.341v2h62v-2h-2.434zm-1.764.939h-23.579l-1.291-3.012c1.651-3.461 2.768-7.185 3.289-10.988h16.698c.672 4.931 2.317 9.697 4.883 14zm-34.238-24v-3c0-.552.449-1 1-1h4.695c1.15 2.413 3.59 4 6.305 4h3c.551 0 1 .448 1 1v3h-5v1c0 4.609-.933 9.228-2.703 13.49l-.459-1.072c-1.883-4.396-2.838-9.048-2.838-13.828v-3.59zm3.271 8h-16.542c.079-.664.141-1.33.184-2h16.173c.044.67.106 1.336.185 2zm25.861 0h-16.255c.055-.666.091-1.333.11-2h16.027c.018.669.064 1.335.118 2zm-40.132-16h-.792c-2.171 0-4.012-1.599-4.192-3.638-.034-.395-.012-.789.066-1.171l.25-1.218-1.243.017c-.063.001-.124.007-.089.01-2.206 0-4-1.794-4-4s1.794-4 4-4h1v-1c0-3.309 2.691-6 6-6 .636 0 1.271.104 1.887.308l1.032.342.254-1.057c.652-2.704 3.048-4.593 5.827-4.593 2.488 0 4.681 1.501 5.586 3.825l.36.924.927-.353c1.385-.525 2.869-.525 4.254 0l.927.353.36-.924c.905-2.324 3.098-3.825 5.586-3.825 2.651 0 5.019 1.779 5.758 4.326l.185.635.657.079c1.346.162 2.588.882 3.406 1.978l.457.612.71-.28c.999-.394 2.039-.457 3.091-.189 1.792.456 3.249 1.979 3.626 3.791.231 1.109.092 2.229-.403 3.241l-.42.858.838.459c1.293.706 2.095 2.044 2.095 3.49 0 1.611-.959 3.058-2.443 3.686l-1.129.478.694 1.01c.651.948.95 2.059.863 3.214-.194 2.586-2.481 4.612-5.205 4.612h-2.78c-1.654 0-3 1.346-3 3v3h-6v-3c0-1.654-1.346-3-3-3h-3c-1.691 0-3.23-.865-4.144-2.226 3.517-.84 6.144-4.003 6.144-7.774h-2c0 3.309-2.691 6-6 6h-5c-1.654 0-3 1.346-3 3v3h-6v-5c0-1.654-1.346-3-3-3zm-2 10h16v1.59c0 .137.009.273.01.41h-16.02c.001-.137.01-.273.01-.41zm-3 16.205c1.137-2.654 1.943-5.399 2.434-8.205h17.131c.491 2.806 1.297 5.551 2.434 8.205l2.485 5.795h-26.968z"/><path d="m10 14h2c0-1.103.897-2 2-2v-2c-2.206 0-4 1.794-4 4z"/><path d="m43 9h2c0-2.206-1.794-4-4-4v2c1.103 0 2 .897 2 2z"/></g></g></svg>